<?xml version="1.0" encoding="UTF-8"?><svg id="a" xmlns="http://www.w3.org/2000/svg" viewBox="0 0 100 100"><defs><style>.b{fill:#fff;}</style></defs><path d="M-3.05,101.87V-3.05h104.91v104.92H-3.05ZM66.22,23.41c-6.06.55-2.9-3.88-7.57-9.59-.43-.53-2.63-1.94-4.05-1.96-12.37-.15-24.75.03-37.13-.11-3.47-.04-4.92.9-4.87,4.63.17,13.75.13,27.5.03,41.25-.03,3.32.74,5.38,4.55,5.01,3.43-.33,5.28,1.09,4.91,4.71-.37,3.62,1.29,5.07,4.8,4.72,3.7-.36,4.68,1.64,4.76,4.99.03,1.44,1.06,3.85,2.03,4.06,2,.45,4.26-.28,5.96-.47-1.8-3.44-3.97-5.72-4.05-8.07-.37-10.99-.07-22-.21-33-.05-3.77,1.36-5.31,5.17-5.23,7.27.16,14.54-.01,21.8.05,5.31.05,11.65-1.82,12.89,6.46.02.14.7.18,2.09.49-.56-3.79,3.3-9.7-1.95-10.2-7-.66-9.47-1.77-9.17-7.76ZM50.32,74.89c9.01,10.64,17.6,13.13,26.7,8.59,6.02-3,9.05-7.75,8.15-11.1-4.75,3.08-9.38,7.37-14.86,9.29-6.49,2.27-12.92-2.24-14.89-8.73,2.75-.67,5.49-1.33,8.23-2l-.15-1.97c-2.32-.26-4.65-.74-6.97-.73-12.5.07-10.79-1.51-10.84,11-.01,2.3.58,4.61.89,6.91l2.3-.18c.43-3.29.85-6.58,1.43-11.08ZM86.36,44.9c-.67-.06-1.33-.12-2-.18-.63,3.42-1.25,6.85-1.77,9.69-2.18-1.65-4.1-2.99-5.89-4.48-8.93-7.44-23.61-5.04-29.13,4.93-.68,1.23-.42,2.98-.59,4.49.58.08,1.15.16,1.73.24,3.59-6.92,9.07-11.19,16.92-10.41,5.2.52,10.03,2.77,12.32,8.64-3.23.79-5.98,1.46-8.72,2.14.08.77.15,1.54.23,2.31,5.42,0,10.84.03,16.26-.05.4,0,1.1-.74,1.12-1.17.36-5.42,1.21-10.9-.47-16.13Z"/><path class="b" d="M-3.05,101.87h104.91V-3.05c.39,1.57,1.13,3.13,1.13,4.7.07,33.7.05,67.4.05,101.4-34.97,0-69.95,0-104.92-.05-.39,0-.78-.74-1.17-1.13Z"/><path class="b" d="M63.36,21.3c2.49.35,4.62,2.15,5,4.64.46,3.05,2.14,4.77,7.04,5.23,4.89.46,1.89,5.6,1.9,9.37,0,.42-.38.72-.79.64-.82-.16-1.22-.21-1.24-.31-1.25-8.27-7.59-6.41-12.89-6.46-7.27-.06-14.54.11-21.8-.05-3.81-.08-5.22,1.46-5.17,5.23.14,11-.16,22.01.21,33,.07,2.16,1.9,4.25,3.59,7.24.22.4-.02.89-.47.97-1.55.27-3.38.7-5.04.33-.97-.22-2-2.63-2.03-4.06-.08-3.35-1.06-5.35-4.76-4.99-3.51.34-5.17-1.1-4.8-4.72.37-3.62-1.48-5.05-4.91-4.71-3.81.37-4.57-1.69-4.55-5.01.11-13.75.14-27.5-.03-41.25-.05-3.72,1.4-4.67,4.87-4.63,12.37.14,24.75-.03,37.13.11,1.42.02,3.69,3.19,3.52,3.65-2.47,6.55,1.85,5.31,5.23,5.78ZM16.56,37.44c0,5.1-.27,10.22.13,15.29.13,1.65,1.26,3.23,2.2,4.82.26.44.9.43,1.15-.02.84-1.51,1.86-3.02,1.9-4.55.27-8.62.33-17.26.03-25.88-.16-4.53,1.06-6.31,5.91-6.03,7.43.42,14.91.3,22.35,0,1.31-.05,2.58-1.37,3.85-2.41.34-.28.32-.81-.05-1.06-1.25-.84-2.49-1.89-3.75-1.92-9.61-.22-19.22-.04-28.83-.15-3.49-.04-5,1.32-4.92,4.86.13,5.69.04,11.38.02,17.06ZM25.99,46.41c0,5.49-.2,10.99.11,16.47.08,1.43,1.04,2.81,1.84,4.2.24.42.83.45,1.11.06,1-1.42,2.25-2.82,2.3-4.27.3-9.01.31-18.04.07-27.06-.11-4.17,1.45-5.52,5.48-5.39,7.45.23,14.91.25,22.35,0,1.41-.05,2.78-1.1,4.16-1.95.4-.24.42-.8.06-1.09-1.29-.99-2.57-2.22-3.89-2.26-9.41-.27-18.83,0-28.24-.19-4.16-.08-5.55,1.64-5.4,5.6.2,5.29.05,10.59.05,15.89Z"/><path class="b" d="M50.32,74.89c-.58,4.49-1.01,7.79-1.43,11.08l-2.3.18c-.31-2.3-.9-4.61-.89-6.91.06-12.51-1.66-10.93,10.84-11,2.32-.01,4.64.47,6.97.73l.15,1.97c-2.74.67-5.48,1.33-8.23,2,1.97,6.5,8.4,11.01,14.89,8.73,5.47-1.92,10.11-6.22,14.86-9.29.9,3.36-2.14,8.1-8.15,11.1-9.1,4.54-17.69,2.06-26.7-8.59Z"/><path class="b" d="M86.36,44.9c1.68,5.24.83,10.71.47,16.13-.03.43-.73,1.17-1.12,1.17-5.42.08-10.84.05-16.26.05-.08-.77-.15-1.54-.23-2.31,2.75-.67,5.5-1.35,8.72-2.14-2.29-5.88-7.12-8.12-12.32-8.64-7.85-.78-13.34,3.49-16.92,10.41-.58-.08-1.15-.16-1.73-.24.17-1.51-.09-3.26.59-4.49,5.53-9.97,20.2-12.37,29.13-4.93,1.79,1.49,3.72,2.84,5.89,4.48.52-2.85,1.15-6.27,1.77-9.69.67.06,1.33.12,2,.18Z"/><path d="M16.57,37.44c0-5.69.1-11.38-.03-17.06-.08-3.54,1.43-4.9,4.92-4.86,9.61.11,19.22-.07,28.83.15.65.02,1.29.3,1.92.68,1.35.82,1.42,2.76.17,3.72-.7.54-1.41.96-2.14.99-7.44.31-14.92.43-22.35,0-4.84-.27-6.07,1.5-5.91,6.03.3,8.62.24,17.26-.03,25.88-.03.97-.44,1.93-.96,2.88-.65,1.21-2.4,1.23-3.09.04-.61-1.04-1.12-2.09-1.21-3.17-.41-5.07-.13-10.19-.13-15.29Z"/><path d="M26,46.41c0-5.3.15-10.6-.05-15.89-.15-3.97,1.24-5.69,5.4-5.6,9.41.19,18.83-.08,28.24.19.13,0,.27.02.4.05,2.7.55,2.58,4.56-.11,5.17-.2.05-.41.08-.62.08-7.44.26-14.91.24-22.35,0-4.03-.13-5.59,1.22-5.48,5.39.24,9.02.23,18.05-.07,27.06-.04,1.15-.84,2.28-1.67,3.41-.58.79-1.78.73-2.28-.12-.64-1.08-1.24-2.17-1.3-3.28-.31-5.47-.11-10.98-.11-16.47Z"/></svg>